<svg xmlns="http://www.w3.org/2000/svg" viewBox="0 0 800 800" fill="#fff"><path d="M624 324l-3-2c-39-25-73-55-101-92-6-8-11-17-18-25-2-4-1-6 1-9 14-16 32-26 50-36l102-59 31-18c3-1 5-1 8 1 18 12 33 27 45 46 2 4 2 7 0 10-31 54-61 108-93 161-5 8-13 15-20 22l-2 1zm-227 51l4 6c11 17 25 31 43 41 5 4 5 4 0 8-40 33-76 70-106 113-16 23-30 47-39 73l-5 25c-2 8-9 12-14 17h-3l-3-3-106-106c-3-3-3-5 0-9 6-7 13-10 22-11 21-4 40-13 58-23 47-26 87-61 123-100l24-28 2-3zm93-166c31 53 73 94 125 125l-2 2c-11 12-23 23-39 30-18 7-35 13-54 15l-2 1c-6 4-11 1-15-2-25-16-45-36-61-61-2-4-3-8 0-12l1-4c2-24 11-46 22-67 4-6 10-11 15-16l10-11zM147 722c22-16 38-37 54-60a239 239 0 0 0-109 86c16-50 40-97 66-143-12 7-25 13-36 22-11 8-20 19-31 29l9-19c15-29 38-52 64-71 9-7 9-7 16 3 21 31 47 58 79 79 4 2 4 4 1 7l-15 14-48 36-9 3-36 14-4 1-1-1zm350-330l-6 5-28 19c-4 2-7 3-10 0-19-11-34-26-45-45-3-4-2-7 0-11l20-28 4-6c14 30 36 51 65 66z"/></svg>