<svg xmlns="http://www.w3.org/2000/svg" width="280.7" height="280.8" fill="#fff"><path fill="#fff" stroke-width="2" d="M153 87a10.1 10.1 0 0 1 1.3-13.6 68.7 68.7 0 0 1 42.9-14.9h8V78h-8.1a47.7 47.7 0 0 0-30.5 11c-1.3 1.3-3.2 2-5.8 2a9.9 9.9 0 0 1-7.8-4zm52.2 115.5h-7.4a49.3 49.3 0 0 1-49.3-49.3v-26a68.8 68.8 0 0 0-68.7-68.7h-4.3V78h4.3a49.3 49.3 0 0 1 49.3 49.2v26a68.8 68.8 0 0 0 68.7 68.6h7.4v-19.3zm-94.3-11a47.7 47.7 0 0 1-30.5 11h-5v19.4h5a66 66 0 0 0 42.8-15.5 10.1 10.1 0 0 0 1.3-13.7 10.2 10.2 0 0 0-13.6-1.3zm106 51.2c2.6 0 4.5-.6 6.5-2.6l20.8-20.8c1.3-1.9 2.6-4.5 2.6-7.1 0-2.6-.6-5.2-2.6-7.1l-20.8-20.8a9.4 9.4 0 0 0-13.6 0v55.8c2 2 4.6 2.6 7.1 2.6zm0-143.3c2.6 0 4.5-.6 6.5-2.6l20.8-20.7a14 14 0 0 0 2.6-7.2c0-2.6-.6-5.2-2.6-7.1L223.4 41a9.4 9.4 0 0 0-13.6 0v55.8c2 2 4.6 2.6 7.1 2.6zM63.8 242.7c2.6 0 5.2-.6 7.1-2.6v-55.8a9.4 9.4 0 0 0-13.6 0l-20.8 20.8a9.8 9.8 0 0 0-2.6 7c0 2.7 1.3 5.3 2.6 7.2l20.8 20.8c2 2 3.9 2.6 6.5 2.6zm0-143.3c2.6 0 5.2-.6 7.1-2.6V41a9.4 9.4 0 0 0-13.6 0L36.5 61.8a9.8 9.8 0 0 0-2.6 7.1 14 14 0 0 0 2.6 7.2l20.8 20.7c2 2 3.9 2.6 6.5 2.6zm0 0"/></svg>