<svg xmlns="http://www.w3.org/2000/svg" viewBox="0 0 800 800" fill="#fff"><path d="M330 586l-82-83 156-156 82 83-156 156zm253-60L427 682l-82-83 156-155 82 82zM151 406l157-157 3 3 75 75c3 3 4 5 0 8L236 485l-3 3-82-82zm181-180l41-32c22-16 46-32 72-43 10-4 19-7 30-7 13 1 19 7 19 20 0 6-1 13-3 19-7 21-18 41-30 58-15 22-31 43-47 63l-2 3-80-81zm177 178l-80-81 22-17c23-19 48-36 75-50l36-13c4-2 9-2 13-1 10 0 16 7 16 18 1 11-3 20-6 30-11 26-26 49-42 71l-31 39-3 4zm97 98l-7-7-70-70c-3-3-3-5 1-8 31-25 63-49 99-67 12-6 24-11 39-11 14 0 21 7 20 21 0 14-6 26-11 39a489 489 0 0 1-71 103zM310 635l16-16 3 2 77 77c3 3 3 5 0 7l-13 13-83-83zm1-31l-17 17-22-24-56-55c-3-4-4-6 0-9l12-12 83 83zm-98-97l-16 17-20-21-58-58c-3-4-3-5 0-8l12-13 82 83z"/></svg>