<svg xmlns="http://www.w3.org/2000/svg" viewBox="0 0 800 800" fill="#fff"><path d="M287.7 530.3h-7.3c-56.7 0-113.3-.1-170 .1-5.1 0-6.8-1.7-7.8-6.4a575 575 0 0 1-10.4-167c2-25.5 7.1-50.8 10.7-76.1.6-4.1 2.5-5.3 6.6-5.2l171 .1h7.2v-6.7c0-56.5.1-113-.1-169.5 0-5 1.6-6.7 6.3-7.8a578.5 578.5 0 0 1 167-10.4c25.5 2 50.7 7.1 76.1 10.7 4.1.6 5.3 2.4 5.3 6.6l-.1 170v7.2h6.7c56.5 0 113 .1 169.5-.1 5 0 6.7 1.6 7.8 6.3a578.4 578.4 0 0 1 10.5 166.5c-2 25.7-7.1 51.1-10.7 76.6-.6 4.1-2.4 5.3-6.6 5.3l-170-.1h-7.1v6.8c0 56.8-.1 113.6.1 170.5 0 5-1.6 6.7-6.3 7.8a575 575 0 0 1-167 10.4c-25.3-2-50.4-7.1-75.6-10.6-4.5-.6-5.8-2.6-5.8-7.2.2-56.8.1-113.6.1-170.5l-.1-7.3zm-60.6-44.5c25.2 0 50.3.1 75.5-.1 4.8 0 8.5 1 11.8 4.8 4.1 4.8 8.7 9.2 13.4 13.4 3.4 3 4.6 6.3 4.6 10.9-.2 50.8 0 101.6-.2 152.5 0 5.4 1.7 7.2 6.8 7.7 7.1.7 14.1 2.5 21.2 3.1 20 1.7 40.2 4.8 60.2 4.2 23.9-.8 47.6-4.9 71.4-7.4 4.6-.5 6.3-2.1 6.3-7.1-.2-50.8-.1-101.6-.2-152.5 0-4.6.9-8.2 4.6-11.4 5-4.3 9.7-9.2 14.1-14.1 2.7-3 5.5-4.1 9.6-4.1 50.8.1 101.6 0 152.5.2 5.2 0 6.9-1.7 7.4-6.5 1.2-10.1 3.4-20 4.3-30.1 1.5-17.4 3.9-34.9 3-52.3-1.1-23.5-4.9-46.9-7.4-70.4-.5-4.9-2.3-6.5-7.4-6.5-51 .2-102 .1-153 .2-3.4 0-5.9-.9-8.3-3.4a326 326 0 0 0-15.5-15.6 11.3 11.3 0 0 1-3.9-9.1c.1-50.8 0-101.6.2-152.5 0-5.4-1.7-7.6-6.8-7.6-.7 0-1.3-.2-2-.3a362.8 362.8 0 0 0-76.9-7.1c-24.7.9-49.3 5-73.9 7.5-4.7.5-6.2 2.2-6.2 7.2.2 51 .1 102 .2 153 0 3.6-.8 6.3-3.6 8.8-5.5 5.1-10.5 10.7-16.1 15.7-2 1.8-5.1 3.2-7.7 3.3-19.7.3-39.3.1-59 .1-31.8 0-63.7.1-95.5-.1-5.2 0-7 1.7-7.4 6.6-.3 4.6-1.7 9.2-2.1 13.8-2 22.5-5.6 45.1-5.2 67.6.5 24.2 4.9 48.3 7.5 72.4.4 4 1.9 5.5 6.3 5.4 25.7-.4 51.6-.2 77.4-.2z"/><path d="M455.1 560.2v69c0 2.9-.2 5.4-3.8 5.8-13.7 1.2-27.4 3.1-41.2 3.3-10.1.1-20.1-2.1-30.2-3-4.5-.4-5.1-2.9-5.1-6.8.1-44.8 0-89.7.2-134.5 0-5.1-1.3-8.7-5-12.2a1443.8 1443.8 0 0 1-35-35 11.6 11.6 0 0 0-9.2-3.7l-135.5.1c-7 0-7-.2-7.6-7.3-.9-9.1-2.9-18.1-2.9-27.2 0-11.6 1-23.2 2.6-34.7 1.5-11.1 2-11 13.2-11l130.5.1c3.8 0 6.5-1.1 9.1-3.8 12-12.3 24.2-24.4 36.4-36.4 2.5-2.4 3.4-4.9 3.4-8.3l-.1-135c0-7 .1-7 7.2-7.6 7.1-.7 14.2-1.4 21.3-2.5 16.1-2.6 31.8 1.6 47.6 2.8 4.3.3 4 3.5 4 6.6l-.1 134.5c0 4.3 1.1 7.4 4.2 10.5 12.1 11.7 23.9 23.6 35.7 35.7 2.7 2.8 5.5 3.7 9.2 3.7l134.5-.1c7 0 6.9.1 7.6 7.3.9 9.1 2.9 18.1 2.9 27.2 0 11.6-1 23.2-2.6 34.7-1.5 11.1-2 11-13.2 11l-129.5-.1c-3.6 0-6.2 1-8.8 3.6-12 12.3-24.2 24.4-36.4 36.4a11 11 0 0 0-3.7 8.7c.4 22.5.3 45.3.3 68.2z"/></svg>