<svg xmlns="http://www.w3.org/2000/svg" viewBox="0 0 800 800" fill="#fff"><path d="M109 414a307 307 0 1 1 614 1 307 307 0 0 1-614-1zm319 267h7a306 306 0 0 0 170-80c36-40 60-86 72-138l6-33-5-1H543c-3 0-5 1-5 4-9 55-50 95-105 103-4 1-5 2-5 6v139zm254-281v-5a298 298 0 0 0-82-172c-42-37-91-61-146-72l-26-4v140c0 4 2 4 5 5 54 7 97 49 105 102 0 5 2 6 6 6h138zM399 537l-6-2c-51-10-89-48-98-99-1-6-3-7-9-7H149v5a300 300 0 0 0 81 171c41 37 88 60 142 72l27 4V537zM293 400c11-60 46-96 106-109V148h-3a306 306 0 0 0-171 81c-36 40-60 88-72 142l-4 29h144zm136-92v92h93c-8-49-42-84-93-92zm93 122h-94v90c50-7 85-40 94-90zM399 308c-25 6-47 16-64 36-13 16-22 35-25 56h89v-92zm-89 121c1 39 48 87 89 90v-90h-89z"/></svg>