<svg xmlns="http://www.w3.org/2000/svg" viewBox="0 0 800 800" fill="#fff"><path d="M295 438l61-57 26-25c3-2 3-4 3-7-2-7 4-12 10-11l12 4 2-2 140-154 9-6 111-41 7-3 2 23c-1 15-6 30-15 43-13 19-28 38-45 53l-43 37-104 90-13 11 5 13c1 5-4 12-9 10-6-2-9 1-13 5l-71 88-2 3-73-74zm-60 56l81 81-9 12-76 93c-2 3-4 4-7 3-20-4-35-14-45-32 0-2-3-4-4-4-26-6-42-21-49-46-2-3 0-5 2-6l81-76 26-25zm-79 102c0 10 8 19 18 19s19-8 19-19c0-10-8-18-18-18-11 0-19 8-19 18zm80 50c0-9-6-16-15-17-9 0-16 8-17 16 0 9 8 17 17 17 8 0 15-8 15-16zm94-88l-79-79 27-25 75 76-23 28z"/></svg>