<svg xmlns="http://www.w3.org/2000/svg" viewBox="0 0 800 800" fill="#fff"><path d="M540.1 597.4a877 877 0 0 0-339.2-196.9c41.5-4.8 72.1-24.2 86.4-63.7 14.3-39.5 1.9-74.1-23.8-105.7a588.4 588.4 0 0 1 146 43.2c47 20.3 90.9 45.7 131.9 76.3a607.6 607.6 0 0 1 110.8 104.7l-.8 1.5-14.6-1c-34-2.1-63.3 8.1-85.5 34.6a90.6 90.6 0 0 0-19.9 78.1c2.1 10.3 6.1 20.2 8.7 28.9zm-18.7-203.8c1.4-48.9-40-92.2-89.6-93.7a94 94 0 0 0-97.7 90.3 93.1 93.1 0 0 0 90.6 97 94.2 94.2 0 0 0 96.7-93.6zm-352.5 37.9a603.4 603.4 0 0 1 181.2 65.4 644.3 644.3 0 0 1 174.7 138.6l-1.3 1.6c-1.3-1.3-2.6-2.7-4-3.9-19.3-18-41.4-25.4-67-16.2a48.5 48.5 0 0 0-32 39c-.8 4.1-2.3 5.4-6.1 5.1l-45.2-4.6c-3.8-.4-4.3-2.2-3.8-5.8a80.3 80.3 0 0 0-67.7-92.8 78 78 0 0 0-62.8 16.9c-3.1 2.5-4.9 2.5-7.2-.6l-28.5-38.8c20.5-16.9 28.5-37 19.8-61.5-8.3-23.7-26.9-35.9-50.1-42.4z"/><path d="M667.1 416.4c-4.7-4.6-9.1-9.1-13.7-13.3-13.9-12.8-27.6-25.8-41.9-38.3a457.6 457.6 0 0 0-36-29.1 763 763 0 0 0-53-34.5 1971.5 1971.5 0 0 0-82.7-46.7 598.7 598.7 0 0 0-57.1-26c-19.5-7.8-39.6-14.3-59.6-20.9-9.7-3.2-19.8-5.1-29.8-7.7-1.7-.4-3.3-1.1-5-1.6l-.2-1.4c7.8-4 15.5-8.2 23.4-11.9 1-.5 3.5 1.1 4.7 2.4a68.6 68.6 0 0 0 42.2 21.8 51.8 51.8 0 0 0 58.7-42.8c.8-4.6 2.6-5.6 6.8-5.4a247 247 0 0 1 159.8 63.1c18.9 16.8 34.5 36 47.8 57.3 1.5 2.5 2.4 4.2-.6 6.6a51.7 51.7 0 0 0-9 72.8c10 13.6 23.5 22 39.9 25.6 3.9.9 5.4 2.5 5.3 6.3v23.7zM76.6 229.7l29.5 2.5 109.5 9.6c12.8 1.1 25.6 2 38.3 3.3 1.9.2 4.2 1.4 5.4 2.9a88.2 88.2 0 0 1 10.6 97.5 72.5 72.5 0 0 1-29.5 29.1 79.3 79.3 0 0 1-49.4 12.7c-2.4-.2-5.5-1.8-6.9-3.7C148.9 333.8 114 283.9 79 233.9c-.8-1-1.3-2.2-2.4-4.2zm673.6 388.9l-21.6-1.7-86.6-7.6c-26.4-2.3-52.8-4.5-79.1-7.1-2.3-.2-5.2-2.3-6.5-4.3a86.5 86.5 0 0 1-3.7-87.7c7.3-15 21.3-24.8 36.2-32.6a87.4 87.4 0 0 1 53.4-8.5c2 .3 4.5 1.6 5.7 3.2 33.8 47.9 67.5 95.9 101.1 144 .3.3.4.8 1.1 2.3zM224.8 743.1l1.2-17.3 12-135.9c.2-2.6 1.7-5.9 3.7-7.6a68.5 68.5 0 0 1 79.2-6.5 68.8 68.8 0 0 1 34.2 74 9 9 0 0 1-3.4 5.1L228 741.4c-.6.6-1.4.8-3.2 1.7z"/><path d="M339.3 77.1l10.5 12.1c19 22.5 37.8 45.2 56.9 67.6 2.9 3.4 3 6.7 2.3 10.6a42.6 42.6 0 0 1-34.4 33.4 52.4 52.4 0 0 1-51.1-16.9 10.1 10.1 0 0 1-2.4-7c5.4-32 11.1-63.9 16.8-95.9l1.4-3.9zm407.2 235.2l-20.4 17.2c-18.2 15.3-36.6 30.4-54.7 45.9-4.2 3.6-8 4.2-13.1 2.8-30.3-8.3-47.4-40.7-35.2-68.5 2.7-6.1 9-10.8 13.9-15.9.9-.9 3.2-1 4.7-.7l100.2 17.7c1.3.3 2.4.8 4.6 1.5zM89.7 507.6l28.8-24.1c16-13.4 31.9-26.8 47.9-40 1.6-1.3 4.2-2.3 6-2a50.9 50.9 0 0 1 37.7 68.9c-2.5 5.9-8.4 10.4-13.1 15.3-.8.9-3.1.9-4.6.6l-97.9-17.2-4.8-1.5zM497.2 743l-25.6-30.3c-13.5-16.1-27-32.2-40.6-48.1a9.4 9.4 0 0 1-2.5-8.1c2.1-22.2 27.6-38.1 49.8-35.5 13.5 1.6 25.6 6 34.8 16.5 1.3 1.5 2.4 4.2 2.1 6-5.4 31.5-11 63-16.6 94.5l-1.4 5zm98.6-639.5l-9.5 108.8a315.6 315.6 0 0 0-81.4-46.8l89.6-62.7 1.3.7zm-88.5 289.3a79.2 79.2 0 0 1-79.3 80.4c-52.8 1-80.7-45.6-80.1-79a80.6 80.6 0 0 1 79.6-80.6c51.2-1.1 81.6 45.5 79.8 79.2z"/></svg>