<svg xmlns="http://www.w3.org/2000/svg" viewBox="0 0 800 800" fill="#fff"><path d="M365 411l-11-10-1-5 24-24h1c4 2 7 7 10 6 6 0 12-1 16-7l4-4c9-6 11-15 13-24l-2-5-6-7c-7-6-7-14 0-21l31-31c3-3 5-3 8-3 7 1 12 4 17 10l9 10 51-51-2-4-32-31c-6-6-6-14 0-21l56-55c5-5 10-5 16-6l4 3a61371 61371 0 0 1 117 120l46 148c1 3 0 5-2 8l-16 16c-3 3-5 3-8 0l-85-85-32-32c-3-3-5-4-8-1l-44 45-4 4 10 8 90 90c3 3 3 4 0 8-7 9-15 10-26 7l-69-16-9 2-42 29c4 6 1 10-4 14l-12 12c-4 4-7 4-12 1h-4l-43 43v1c5 4 2 7-1 10l-6 6c-3 4-6 5-10 0l-19 19c-3 3-4 3-7 0l-22-22c-3-3-4-3-7 0-25 24-48 50-70 76-29 33-61 63-94 92-7 6-14 6-23 5-32-4-55-31-53-63 0-5 3-10 6-14 29-34 59-66 93-95l42-35 49-47 52-52 21-22zm12 138c-6-8-6-8 1-14l1-2c7-6 7-6 13-2l46-45-1-2c-8-7-5-7-13-1-14 13-25 30-43 39-6 3-10 10-16 16l12 11zm-94 22c8 0 14-6 14-14s-6-14-14-14-14 6-14 14 6 14 14 14zm-127 99c-8 0-14 6-14 14s6 14 14 14c8-1 14-7 14-15s-6-13-14-13z"/></svg>