<svg xmlns="http://www.w3.org/2000/svg" viewBox="0 0 800 800" fill="#fff"><path d="M195 209c7 4 14 7 20 12 13 10 27 20 39 31 9 7 15 17 23 26l23 31 8 8c5 4 11 2 14-3l4-14c8-35 21-68 40-98l32-50c6-10 11-20 13-31 3-17 0-33-13-46l-2-4 14 8c23 15 40 35 54 58 22 37 33 78 38 120 5 43 1 86-9 128-3 11-2 22 6 32 10 12 26 12 37 1 8-9 13-19 12-31-1-26 7-48 17-71 8-17 18-34 31-49l8-7-2 16c-3 41 3 81 22 118a219 219 0 0 1-3 179c-37 79-99 124-185 133a226 226 0 0 1-247-198c-3-25 3-49 13-72 9-20 19-39 24-61 12-51 8-101-20-148-3-6-8-11-12-17l1-1z"/></svg>