<svg xmlns="http://www.w3.org/2000/svg" viewBox="0 0 800 800" fill="#fff"><path d="M455 604l-18-8a361 361 0 0 0-125-20c-4 0-5-2-5-5a641 641 0 0 1 46-183c54-23 109-41 167-52l34-7c4 0 6 0 8 4 8 14 14 29 14 46 0 15-7 27-14 38-10 16-23 28-39 38l-6 6c-26 41-48 85-60 133l-2 10zM347 374l-2-26c-6-53-15-105-35-155l-8-18c-1-3-2-6-1-10 3-13 9-24 19-33 3-3 9-5 13-5l50-5c42-5 83-13 124-25 17-5 34-13 49-24l25-19v21l3 26c0 4-1 6-5 7l-121 36-61 17c-15 4-27 17-26 34 0 24 0 48 2 72 1 15 5 29 8 43h2l1-4v-51c0-9 6-15 15-15h56l94 1h7c-15 27-40 36-67 46 20 8 39 15 56 28-68 12-134 31-198 59zm-72 341h-60c-5 0-8-2-12-5a57 57 0 0 1-15-39c0-4 8-16 12-17l9 2c12 5 25 6 37 1 11-4 18-10 24-20l29-45c2-3 5-4 9-4 33 0 65 7 96 15 13 3 26 9 39 13 5 2 6 4 3 8l-13 23a150 150 0 0 1-97 68h-61z"/><path d="M386 233l-2-6 1-10c0-8 4-13 12-15l159-28 26-4 5-1-2 10c-3 17-7 34-17 49-3 3-5 4-8 4l-157-1-17 2zm0-39c-4-12 1-20 14-24l40-11 141-42 6-1 3 14-1 23c0 4-2 6-6 7l-152 27-41 7h-4z"/></svg>