<svg xmlns="http://www.w3.org/2000/svg" viewBox="0 0 53.446 67.733">
  <g fill="none" stroke-linecap="round">
    <path d="M28.936 63.44c1.272-.478 2.104-1.276 2.104-1.276a1.866 1.866 0 0 0 .276-.328l5.969-9.006.045-.067a1.866 1.866 0 0 0 .015-.03 1.866 1.866 0 0 0 .007-.008 1.866 1.866 0 0 0 .075-.127l9.013-14.302a1.866 1.866 0 0 0 .023-.023l.03-.053a1.866 1.866 0 0 0 .038-.06c.003-.003.004-.01.008-.015a1.866 1.866 0 0 0 .224-.604 1.866 1.866 0 0 0 0-.007c4.824-8.962 3.243-20.074-4.089-27.21-7.496-7.296-19.012-8.57-27.926-3.097-8.914 5.474-12.986 16.322-9.87 26.307 2.929 9.391 11.57 15.565 21.27 15.825l-3.797 6.058a1.866 1.866 0 0 0-.157.276 1.866 1.866 0 0 0-.194.791c-.16.415-.352.727-.403 1.679-.074 1.396.463 3.444 2.298 4.67 1.772 1.21 3.775 1.081 5.044.605zm-1.313-3.5c-.52.196-.927.308-1.634-.179a1.866 1.866 0 0 0-.023-.023c-.678-.449-.673-.788-.642-1.372.03-.565.225-1.013.24-1.045l13.914-22.159c.011-.015.026-.023.038-.038a1.866 1.866 0 0 0 .127-.231l.261-.403a1.866 1.866 0 0 0 .023-.038l.03-.053a1.866 1.866 0 0 0 .039-.06 1.866 1.866 0 0 0 .253-.745c3.647-7.16 1.284-16.015-5.692-20.182-7.211-4.307-16.597-2.013-21.01 5.133-4.414 7.146-2.26 16.566 4.82 21.085 4.034 2.575 8.762 2.815 13.004 1.432l-3.037 4.835a1.866 1.866 0 0 0-.582-.06A19.133 19.133 0 0 1 8.436 32.423a19.13 19.13 0 0 1 8.26-22.017 19.134 19.134 0 0 1 23.374 2.596 19.13 19.13 0 0 1 3.23 23.293l-9.072 14.384-.007.016-.023.038-5.805 8.759c-.062.053-.302.273-.768.448zm1.462-21.867a11.635 11.635 0 0 1-8.714-1.59 11.646 11.646 0 0 1-3.656-15.973 11.651 11.651 0 0 1 15.922-3.895 11.65 11.65 0 0 1 4.125 15.862l-.365.59-.008.007a11.644 11.644 0 0 1-7.304 4.999z" stroke="#fff" stroke-linejoin="round" stroke-opacity=".955" paint-order="stroke markers fill" stroke-width="7.64"/>
    <path d="M38.345 33.443L23.846 56.52" stroke="#07abf6" stroke-width="3.732"/>
    <path d="M25.438 40.162a13.541 13.541 0 0 1-12.1-10.848 13.541 13.541 0 0 1 7.027-14.653A13.541 13.541 0 0 1 36.4 17.308a13.541 13.541 0 0 1 1.945 16.135" stroke="#01a9f6" stroke-width="3.732" stroke-linejoin="round" stroke-opacity=".97"/>
    <path d="M21.278 47.059A21.012 21.012 0 0 1 5.716 28.155 21.012 21.012 0 0 1 18.623 7.348a21.012 21.012 0 0 1 23.85 5.544 21.012 21.012 0 0 1 2.405 24.367" stroke="#f54739" stroke-linejoin="round" stroke-width="3.82"/>
    <path d="M44.878 37.259l-9.137 14.5" stroke="#f54739" stroke-width="3.82"/>
    <path d="M23.846 56.52s-1.474 3.133 1.054 4.807c2.483 1.708 4.825-.493 4.825-.493l1.944-2.542" stroke="#07abf6" stroke-width="3.732" stroke-linejoin="round"/>
  </g>
</svg>
