<svg xmlns="http://www.w3.org/2000/svg" width="720" height="720"><g fill="#FFF" stroke="#FFF" stroke-miterlimit="10" stroke-width="70"><path d="M359 104a161 161 0 1 0 156 202 159 159 0 0 0 5-41c0-89-72-161-161-161zm15 25l-17 93c-15 2-29 11-35 24l-94-18c18-64 80-106 146-99zm-51 268c-64-18-106-80-99-146l93 17c2 15 11 29 24 35l-18 94zm23 4l17-93c15-2 29-11 35-24l94 18c-18 64-80 106-146 99zm150-122l-93-17c-2-15-11-29-24-35l18-94c64 18 106 80 99 146z"/><path d="M580 272c0 32-8 207-109 331l-26-26a555 555 0 0 0 106-300v-11a191 191 0 1 0-60 140l-18 49a220 220 0 1 1 107-184z" stroke="#FFF" stroke-width="85"/><path d="M359 104a161 161 0 1 0 156 202 159 159 0 0 0 5-41c0-89-72-161-161-161zm15 25l-17 93c-15 2-29 11-35 24l-94-18c18-64 80-106 146-99zm-51 268c-64-18-106-80-99-146l93 17c2 15 11 29 24 35l-18 94zm23 4l17-93c15-2 29-11 35-24l94 18c-18 64-80 106-146 99zm150-122l-93-17c-2-15-11-29-24-35l18-94c64 18 106 80 99 146z"/><path d="M492 302c-18 64-80 106-146 99l17-93c15-2 29-11 35-24l94 18zm4-23l-93-17c-2-15-11-29-24-35l18-94c64 18 106 80 99 146z"/><path d="M551 266a191 191 0 1 0-60 140l-18 49c-27 68-68 138-132 180l24 29a555 555 0 0 0 185-386l1-3v-9zm-31 5c-1 12-2 24-5 35a161 161 0 1 1 5-35z"/><path d="M374 129l-17 93c-15 2-29 11-35 24l-94-18c18-64 80-106 146-99zm-33 174l-18 94c-64-18-106-80-99-146l93 17c2 15 11 29 24 35zm174 3l5-35m-29 135c12-39 19-75 24-100"/></g><path fill="none" d="M359 104a161 161 0 1 0 156 202 159 159 0 0 0 5-41c0-89-72-161-161-161zm15 25l-17 93c-15 2-29 11-35 24l-94-18c18-64 80-106 146-99zm-51 268c-64-18-106-80-99-146l93 17c2 15 11 29 24 35l-18 94zm23 4l17-93c15-2 29-11 35-24l94 18c-18 64-80 106-146 99zm150-122l-93-17c-2-15-11-29-24-35l18-94c64 18 106 80 99 146z"/><path fill="#f44336" stroke="#f44336" stroke-miterlimit="10" stroke-width="20" d="M580 272c0 32-8 207-109 331l-26-26a555 555 0 0 0 106-300v-11a191 191 0 1 0-60 140l-18 49a220 220 0 1 1 107-184z"/><path fill="#f44336" d="M492 302c-18 64-80 106-146 99l17-93c15-2 29-11 35-24l94 18zm4-23l-93-17c-2-15-11-29-24-35l18-94c64 18 106 80 99 146z"/><path fill="#03a9f4" stroke="#03a9f4" stroke-miterlimit="10" stroke-width="7" d="M551 266a191 191 0 1 0-60 140l-18 49c-27 68-68 138-132 180l24 29a555 555 0 0 0 185-386l1-3v-9zm-31 5c-1 12-2 24-5 35a161 161 0 1 1 5-35z"/><path fill="#03a9f4" d="M374 129l-17 93c-15 2-29 11-35 24l-94-18c18-64 80-106 146-99zm-33 174l-18 94c-64-18-106-80-99-146l93 17c2 15 11 29 24 35z"/></svg>